<?xml version="1.0" encoding="UTF-8"?>
<svg id="Layer_1" data-name="Layer 1" xmlns="http://www.w3.org/2000/svg" viewBox="0 0 883.08 1080">
  <defs>
    <style>
      .cls-1 {
        fill: #dcdcdc;
        stroke-width: 0px;
      }
    </style>
  </defs>
  <path class="cls-1" d="M123.5,1080c-63.28,0-115.07-50.14-117.72-112.77h308.42v112.77H123.5Z"/>
  <path class="cls-1" d="M568.86,112.79V0h296.56c-19,67.04-78.85,112.79-142.14,112.79h-154.42Z"/>
  <path class="cls-1" d="M314.2,967.23v-125.4h292.32c40.64,0,78.65-15.76,107.02-44.37,26.57-26.58,42.16-61.91,43.86-99.45.23-1.97.24-4.28.24-6.83,0-3.3-.01-5.58-.26-7.86-2.52-55.78-36.25-107.26-91.43-131.55-19.58-8.62-41.09-11.95-62.48-11.95h-161.93c1.24-33.08,14.63-63.9,38.02-87.29,24.56-24.58,79.61-38.11,114.6-38.11h12.37c74.17,0,143.61,28.83,195.52,81.2,48.25,48.24,76.85,112.1,80.55,179.8.23,3.38.23,5.97.49,8.29l-.03,14.76c-.22,1.76-.23,6.61-.23,6.61-3.94,69.2-32.63,132.8-81,181.16-51.98,52.23-121.34,80.99-195.3,80.99h-292.32Z"/>
  <path class="cls-1" d="M276.53,665.6c-73.8,0-143.15-28.85-195.29-81.22C32.86,536.22,4.18,472.38.47,404.59l-.04-2.55c-.2-1.46-.18-3.33-.18-5.19-.26-1.86-.24-3.48-.24-3.54v-6.35c0-.85,0-2.96.21-4.87.03-2.51.02-4.66.23-6.61l.03-2.9c3.71-66.86,32.4-130.45,80.76-178.81,52-52.23,121.36-80.99,195.3-80.99h292.32v125.4h-292.32c-40.63,0-78.63,15.76-107.01,44.38-26.58,26.56-42.16,61.89-43.86,99.44-.23,1.97-.25,4.28-.25,6.83,0,3.31.01,5.6.27,7.87,2.72,60.25,41.87,115.54,105.17,136.8,14.86,4.99,30.65,6.7,46.32,6.7h164.35c-1.57,41.73-22.68,80-58.95,104.16-22.2,14.8-48.97,21.23-75.65,21.23h-30.39Z"/>
</svg>